# xmcd CD database file
#
# Track frame offsets:
#	150
#	13452
#	32116
#	53074
#	71691
#	100494
#	116736
#	136227
#	161362
#	181462
#	197497
#	221084
#	243509
#
# Disc length: 3521 seconds
#
# Revision: 1
# Processed by: cddbd v1.5.1PL0 Copyright (c) Steve Scherf et al.
# Submitted via: CDex 1.51
#
DISCID=bf0dbf0d
DTITLE=Diana Krall - All For You
DYEAR=1996
DGENRE=Jazz
TTITLE0=I'm An Errand Girl for Rhythm
TTITLE1=Gee Baby, Ain't I Good to You
TTITLE2=You Call It Madness
TTITLE3=Frim Fram Sauce
TTITLE4=Boulevard of Broken Dreams
TTITLE5=Baby Baby All The Time
TTITLE6=Hit That Jive Jack
TTITLE7=You're Looking at Me
TTITLE8=I'm Thru with Love
TTITLE9=Deed I Do
TTITLE10=A Blossom Fell
TTITLE11=If I Had You
TTITLE12=When I Grow Too Old to Dream
EXTD=YEAR: 1996
EXTT0=
EXTT1=
EXTT2=
EXTT3=
EXTT4=
EXTT5=
EXTT6=
EXTT7=
EXTT8=
EXTT9=
EXTT10=
EXTT11=
EXTT12=
PLAYORDER=
